<?xml version="1.0" encoding="UTF-8"?>
<svg version="1.1" xmlns="http://www.w3.org/2000/svg" width="360" height="360">
<path d="M0 0 C1.26947983 0.00131424 1.26947983 0.00131424 2.56460571 0.00265503 C15.25939232 0.046065 27.36764458 0.52126181 39.5625 4.375 C40.74416748 4.7450415 40.74416748 4.7450415 41.94970703 5.12255859 C80.59970419 17.61726893 111.8730753 43.31053613 130.578125 79.39453125 C134.6524672 87.59171973 137.63683598 96.19984682 140.3125 104.9375 C140.51133789 105.57292725 140.71017578 106.20835449 140.91503906 106.86303711 C144.55427907 119.34912599 144.97094745 132.15955482 144.9375 145.0625 C144.93668427 146.25162994 144.93668427 146.25162994 144.93585205 147.46478271 C144.89780981 159.53878218 144.16210541 170.7790109 140.5625 182.375 C140.34819336 183.11766113 140.13388672 183.86032227 139.91308594 184.62548828 C136.66407036 195.84097657 132.16231611 206.14400054 126.5625 216.375 C125.82386719 217.74205078 125.82386719 217.74205078 125.0703125 219.13671875 C108.29675324 248.56152187 80.16115486 270.10458262 48.5625 281.375 C47.50804687 281.75398438 46.45359375 282.13296875 45.3671875 282.5234375 C8.96357832 294.65797389 -31.82493135 290.17224195 -65.875 273.4375 C-98.46545636 256.81780931 -124.89955918 227.2357119 -136.77734375 192.47363281 C-140.55701043 180.45809479 -143.58485154 168.20523596 -143.60546875 155.5625 C-143.60879715 154.83111816 -143.61212555 154.09973633 -143.61555481 153.34619141 C-143.62059094 151.80322898 -143.62296417 150.26025579 -143.62280273 148.71728516 C-143.62496812 146.40898597 -143.64310056 144.10118233 -143.66210938 141.79296875 C-143.80976748 103.20688126 -128.60869414 68.57095768 -101.6875 41.1875 C-81.50602414 21.18024928 -56.9864316 8.84288185 -29.4375 2.375 C-28.6633374 2.18663574 -27.8891748 1.99827148 -27.09155273 1.80419922 C-18.13224663 -0.11657165 -9.11978491 -0.02295555 0 0 Z M-90.4375 71.375 C-97.11769591 84.73539183 -87.25149141 110.58092771 -82.9921875 123.75 C-82.47729016 125.29278265 -81.95921461 126.83450935 -81.4375 128.375 C-81.20836914 129.06078125 -80.97923828 129.7465625 -80.74316406 130.453125 C-70.53632836 160.55514262 -53.8543862 186.94796851 -31.93164062 209.81347656 C-30.95323776 210.83600348 -29.9803378 211.86383119 -29.01367188 212.89746094 C-20.64869516 221.83832965 -11.36725933 229.23483372 -1.4375 236.375 C-0.78845703 236.84212402 -0.13941406 237.30924805 0.52929688 237.79052734 C16.35475254 249.43948463 16.35475254 249.43948463 34.5625 255.375 C42.65970071 253.62014592 49.20080095 248.40563587 55.5625 243.375 C56.23539063 242.85679687 56.90828125 242.33859375 57.6015625 241.8046875 C62.8632748 237.56286657 68.11577555 232.85786936 69.00390625 225.93359375 C68.45814353 221.53368367 67.29461427 220.33452632 64.0625 217.375 C63.14339844 216.5190625 62.22429687 215.663125 61.27734375 214.78125 C60.38144531 213.9871875 59.48554688 213.193125 58.5625 212.375 C57.54349609 211.46234375 57.54349609 211.46234375 56.50390625 210.53125 C55.23889611 209.41614751 53.96522322 208.31080457 52.68359375 207.21484375 C50.13708942 205.00599746 47.6664984 202.72179446 45.1875 200.4375 C44.25164062 199.59574219 43.31578125 198.75398437 42.3515625 197.88671875 C40.55357941 196.2675267 38.77563501 194.62566242 37.0234375 192.95703125 C32.89130874 189.25123323 29.85829972 186.87436016 24.1875 186.6875 C19.10559176 187.06954417 14.26570621 188.2810129 9.38671875 189.71875 C6.23096923 190.45203619 3.78852758 190.76109373 0.5625 190.375 C-13.91968448 180.08814555 -25.5722678 160.34222185 -33.75 145.0625 C-34.27400391 144.10021484 -34.79800781 143.13792969 -35.33789062 142.14648438 C-42.25426172 129.34986949 -42.25426172 129.34986949 -41.4375 123.375 C-40.04569797 120.60456066 -38.30899517 118.13735619 -36.5 115.625 C-35.57364882 114.29727245 -34.6478419 112.96916497 -33.72265625 111.640625 C-32.96855469 110.56296875 -32.21445313 109.4853125 -31.4375 108.375 C-29.0790478 103.6580956 -30.12774295 97.7467022 -31.65917969 92.88427734 C-32.21091104 91.32112163 -32.77830946 89.76342779 -33.359375 88.2109375 C-33.66063293 87.37462799 -33.96189087 86.53831848 -34.27227783 85.67666626 C-34.90781723 83.92129964 -35.55023682 82.16841006 -36.19921875 80.41796875 C-37.18542751 77.75559489 -38.14905611 75.08586995 -39.109375 72.4140625 C-39.7330659 70.70004392 -40.35802373 68.9864857 -40.984375 67.2734375 C-41.26996277 66.4847226 -41.55555054 65.69600769 -41.84979248 64.88339233 C-44.64343211 56.42537157 -44.64343211 56.42537157 -50.4375 50.375 C-64.91578745 48.42599977 -81.96979642 60.38660747 -90.4375 71.375 Z M30.75 67.875 C30.358125 68.7 29.96625 69.525 29.5625 70.375 C32.57274236 74.56704122 36.00937161 77.2906879 40.25 80.125 C59.47792866 93.46713331 69.89112233 112.24449767 75.66040039 134.54418945 C75.88332764 135.40359131 76.10625488 136.26299316 76.3359375 137.1484375 C76.52591309 137.91591309 76.71588867 138.68338867 76.91162109 139.47412109 C77.47841988 141.58419501 77.47841988 141.58419501 79.5625 143.375 C82.0625 143.70833333 82.0625 143.70833333 84.5625 143.375 C86.95162397 141.40716824 86.95162397 141.40716824 86.9375 137.6875 C86.27791497 114.74859832 71.33128109 92.87166501 55.2734375 77.6328125 C51.72759219 74.42180033 48.00125229 71.6174526 44 69 C43.42870361 68.62456055 42.85740723 68.24912109 42.26879883 67.86230469 C37.91638582 65.19242917 34.09865576 63.25616448 30.75 67.875 Z M13.5625 100.375 C11.29565428 102.24893394 11.29565428 102.24893394 11.1171875 105.22265625 C11.2711246 108.51622752 11.2711246 108.51622752 13.7578125 110.68359375 C15.20800781 111.73740234 15.20800781 111.73740234 16.6875 112.8125 C27.59246722 121.21812134 33.44415806 131.02266472 37.01953125 144.4140625 C37.51029056 146.43084546 37.51029056 146.43084546 38.5625 148.375 C41.43614791 148.79246608 41.43614791 148.79246608 44.5625 148.375 C46.51810386 146.30037674 46.51810386 146.30037674 47.5625 143.375 C45.47833284 126.96218364 35.85559841 113.79622027 23.25 103.6875 C20.11268418 101.50361897 17.47111174 100.375 13.5625 100.375 Z " fill="#050505" transform="translate(179.4375,35.625)"/>
<path d="M0 0 C0 3.54709938 -0.57762678 4.01780191 -2.875 6.5625 C-3.40867187 7.16191406 -3.94234375 7.76132813 -4.4921875 8.37890625 C-5.63671654 9.60942322 -6.81169896 10.81169896 -8 12 C-8.639375 12.99 -9.27875 13.98 -9.9375 15 C-12 18 -12 18 -15 20 C-15 21.32 -15 22.64 -15 24 C-16.875 26.25 -16.875 26.25 -19 28 C-19.66 28 -20.32 28 -21 28 C-21 28.66 -21 29.32 -21 30 C-21.66 30 -22.32 30 -23 30 C-18.80842839 18.26781213 -8.70554033 8.60750496 0 0 Z " fill="#545454" transform="translate(79,76)"/>
<path d="M0 0 C0.33 0 0.66 0 1 0 C1 4.95 1 9.9 1 15 C0.34 15 -0.32 15 -1 15 C-1.33 15.99 -1.66 16.98 -2 18 C-3.62890625 19.38671875 -3.62890625 19.38671875 -5.5625 20.6875 C-6.52349609 21.34298828 -6.52349609 21.34298828 -7.50390625 22.01171875 C-8.24447266 22.50091797 -8.24447266 22.50091797 -9 23 C-7.54176926 19.92151287 -5.80297865 17.15884457 -3.9375 14.3125 C-0.9403711 9.40479258 -0.18416256 5.7090393 0 0 Z " fill="#6E6E6E" transform="translate(149,133)"/>
<path d="M0 0 C1.125 3.75 1.125 3.75 0 6 C-0.99 6.33 -1.98 6.66 -3 7 C-3.144375 7.61875 -3.28875 8.2375 -3.4375 8.875 C-4.21183193 11.80025394 -5.42029919 12.49517453 -8 14 C-10.75 14.6875 -10.75 14.6875 -13 15 C-12.34 14.38125 -11.68 13.7625 -11 13.125 C-6.94330155 9.09168309 -3.51970455 4.49788547 0 0 Z " fill="#6B6B6B" transform="translate(247,265)"/>
<path d="M0 0 C4 0 4 0 5.5625 1.375 C6.036875 1.91125 6.51125 2.4475 7 3 C7.99 3.66 8.98 4.32 10 5 C10.33 5.99 10.66 6.98 11 8 C11.99 8 12.98 8 14 8 C13.34 9.32 12.68 10.64 12 12 C8 8 4 4 0 0 Z " fill="#4A4A4A" transform="translate(223,235)"/>
<path d="M0 0 C1.62580966 0.11398665 3.25067157 0.24155659 4.875 0.375 C5.77992188 0.44460937 6.68484375 0.51421875 7.6171875 0.5859375 C10 1 10 1 12 3 C6.72 3.66 1.44 4.32 -4 5 C-3.67 4.01 -3.34 3.02 -3 2 C-2.34 2.33 -1.68 2.66 -1 3 C-0.67 2.01 -0.34 1.02 0 0 Z " fill="#696869" transform="translate(196,220)"/>
<path d="M0 0 C2.97246802 2.54782974 4.41535288 5.45340883 6 9 C6 9.66 6 10.32 6 11 C5.34 11 4.68 11 4 11 C4 10.34 4 9.68 4 9 C3.01 9.33 2.02 9.66 1 10 C-0.80411967 7.24075815 -1.0127245 6.11027897 -0.625 2.75 C-0.41875 1.8425 -0.2125 0.935 0 0 Z " fill="#363636" transform="translate(305,108)"/>
<path d="M0 0 C2.31 0.33 4.62 0.66 7 1 C8.2077558 4.62326739 7.54311128 5.64146369 6 9 C2.91910327 6.22719294 1.31224548 3.93673644 0 0 Z " fill="#2F2F2F" transform="translate(152,192)"/>
<path d="M0 0 C-2.85276137 2.93200474 -5.65079784 5.64315404 -9 8 C-9.33 6.68 -9.66 5.36 -10 4 C-6.58908673 0.88145073 -4.68377325 -0.53528837 0 0 Z " fill="#414141" transform="translate(99,97)"/>
<path d="M0 0 C1.19625 0.185625 2.3925 0.37125 3.625 0.5625 C7.28283707 1.0311197 10.37862166 0.81481013 14 0 C14 1.32 14 2.64 14 4 C12.68 4.33 11.36 4.66 10 5 C10 4.34 10 3.68 10 3 C8.081875 2.814375 8.081875 2.814375 6.125 2.625 C2.25 2.25 2.25 2.25 0 0 Z " fill="#757575" transform="translate(206,289)"/>
<path d="M0 0 C0 4.08718063 -1.70017819 5.3907287 -4.33203125 8.34765625 C-6.35075121 10.34746549 -8.46274944 11.73137472 -11 13 C-9.46356148 9.31930113 -7.21849055 7.01224796 -4.375 4.25 C-3.55773437 3.45078125 -2.74046875 2.6515625 -1.8984375 1.828125 C-0.95871094 0.92320313 -0.95871094 0.92320313 0 0 Z " fill="#717171" transform="translate(79,76)"/>
<path d="M0 0 C1.76462683 3.08809695 2 4.23312136 2 8 C1.01 8.33 0.02 8.66 -1 9 C-2.21869929 11.50447516 -2.21869929 11.50447516 -3 14 C-4.25955231 10.22134307 -3.48087189 8.96588214 -2.0625 5.3125 C-1.68222656 4.31863281 -1.30195312 3.32476562 -0.91015625 2.30078125 C-0.60980469 1.54152344 -0.30945312 0.78226562 0 0 Z " fill="#757575" transform="translate(45,126)"/>
<path d="M0 0 C2.475 0.495 2.475 0.495 5 1 C4.67 1.99 4.34 2.98 4 4 C4.33 4.804375 4.66 5.60875 5 6.4375 C6.11814664 9.30275077 5.86726161 10.16333181 5 13 C4.35004703 11.58521865 3.70521278 10.16808513 3.0625 8.75 C2.70285156 7.96109375 2.34320313 7.1721875 1.97265625 6.359375 C1.09966721 4.24176302 0.48661492 2.23330638 0 0 Z " fill="#868686" transform="translate(218,155)"/>
<path d="M0 0 C0.99 0 1.98 0 3 0 C3 0.66 3 1.32 3 2 C3.66 2 4.32 2 5 2 C5 2.66 5 3.32 5 4 C4.34 4 3.68 4 3 4 C3.99 5.485 3.99 5.485 5 7 C5.125 9.6875 5.125 9.6875 5 12 C3.20931427 9.3139714 2.33944209 7.3373411 1.375 4.3125 C1.11460937 3.50425781 0.85421875 2.69601563 0.5859375 1.86328125 C0.39257812 1.24839844 0.19921875 0.63351563 0 0 Z " fill="#575757" transform="translate(258,144)"/>
<path d="M0 0 C6.4 -0.36923077 6.4 -0.36923077 9.4375 1.5 C9.953125 1.995 10.46875 2.49 11 3 C10.67 3.66 10.34 4.32 10 5 C8.51800098 4.55090939 7.03944764 4.09043436 5.5625 3.625 C4.73878906 3.36976563 3.91507812 3.11453125 3.06640625 2.8515625 C1 2 1 2 0 0 Z " fill="#515151" transform="translate(112,307)"/>
<path d="M0 0 C1.95582488 2.93373731 3.56224304 5.78216298 5 9 C4.67 9.66 4.34 10.32 4 11 C3.01 10.67 2.02 10.34 1 10 C0.37542727 6.56484998 0 3.50935186 0 0 Z " fill="#646464" transform="translate(105,182)"/>
<path d="M0 0 C0.66 0.66 1.32 1.32 2 2 C1.625 4.625 1.625 4.625 1 7 C0.34 7 -0.32 7 -1 7 C-1.33 7.66 -1.66 8.32 -2 9 C-2.25 3.375 -2.25 3.375 0 0 Z " fill="#2E2E2E" transform="translate(139,156)"/>
<path d="M0 0 C0.66 0 1.32 0 2 0 C2 2.97 2 5.94 2 9 C1.34 7.68 0.68 6.36 0 5 C-0.66 5 -1.32 5 -2 5 C-1.125 1.125 -1.125 1.125 0 0 Z " fill="#494949" transform="translate(86,109)"/>
<path d="M0 0 C0.33 1.98 0.66 3.96 1 6 C0.01 6 -0.98 6 -2 6 C-3.6875 3.5 -3.6875 3.5 -5 1 C-2 0 -2 0 0 0 Z " fill="#464646" transform="translate(69,265)"/>
<path d="M0 0 C0.625 1.875 0.625 1.875 1 4 C-1 6 -1 6 -4.125 6.125 C-5.548125 6.063125 -5.548125 6.063125 -7 6 C-7.33 5.34 -7.66 4.68 -8 4 C-6.865625 3.71125 -5.73125 3.4225 -4.5625 3.125 C-3.386875 2.75375 -2.21125 2.3825 -1 2 C-0.67 1.34 -0.34 0.68 0 0 Z " fill="#969696" transform="translate(226,180)"/>
<path d="M0 0 C0.66 0.33 1.32 0.66 2 1 C0.875 3.4375 0.875 3.4375 -1 6 C-4.1875 6.8125 -4.1875 6.8125 -7 7 C-4.66666667 4.66666667 -2.33333333 2.33333333 0 0 Z " fill="#6D6D6D" transform="translate(95,62)"/>
<path d="M0 0 C0.33 0.66 0.66 1.32 1 2 C0.34 2 -0.32 2 -1 2 C-1.33 3.65 -1.66 5.3 -2 7 C-3.65 6.67 -5.3 6.34 -7 6 C-2.25 1.125 -2.25 1.125 0 0 Z " fill="#5C5C5C" transform="translate(233,280)"/>
<path d="M0 0 C3.465 1.98 3.465 1.98 7 4 C6.01 4.66 5.02 5.32 4 6 C3.01 5.67 2.02 5.34 1 5 C0.67 3.35 0.34 1.7 0 0 Z " fill="#5D5D5D" transform="translate(170,266)"/>
<path d="M0 0 C0.33 0.66 0.66 1.32 1 2 C1.99 2.33 2.98 2.66 4 3 C3.67 5.64 3.34 8.28 3 11 C2.67 11 2.34 11 2 11 C1.34 7.37 0.68 3.74 0 0 Z " fill="#8A8A8A" transform="translate(224,168)"/>
<path d="M0 0 C2.50037734 2.17424117 3.43628586 3.73045798 4 7 C3.34 7 2.68 7 2 7 C1.67 6.34 1.34 5.68 1 5 C0.01 5.495 0.01 5.495 -1 6 C-0.67 4.02 -0.34 2.04 0 0 Z " fill="#696969" transform="translate(305,108)"/>
<path d="M0 0 C1.125 3.75 1.125 3.75 0 6 C-0.66 6 -1.32 6 -2 6 C-2 6.66 -2 7.32 -2 8 C-2.66 8 -3.32 8 -4 8 C-2.87548273 5.0280615 -1.77706209 2.66559313 0 0 Z " fill="#858585" transform="translate(60,98)"/>
</svg>
